<?xml version="1.0" encoding="UTF-8" standalone="no"?>
<!-- Created with Inkscape (http://www.inkscape.org/) -->

<svg
   width="1000"
   height="1000"
   viewBox="0 0 1000 1000"
   version="1.1"
   id="svg1"
   inkscape:version="1.4.2 (f4327f4, 2025-05-13)"
   sodipodi:docname="acaadia_olay.svg"
   xml:space="preserve"
   xmlns:inkscape="http://www.inkscape.org/namespaces/inkscape"
   xmlns:sodipodi="http://sodipodi.sourceforge.net/DTD/sodipodi-0.dtd"
   xmlns="http://www.w3.org/2000/svg"
   xmlns:svg="http://www.w3.org/2000/svg"><sodipodi:namedview
     id="namedview1"
     pagecolor="#505050"
     bordercolor="#ffffff"
     borderopacity="1"
     inkscape:showpageshadow="0"
     inkscape:pageopacity="0"
     inkscape:pagecheckerboard="1"
     inkscape:deskcolor="#505050"
     inkscape:document-units="px"
     inkscape:zoom="1.4702523"
     inkscape:cx="567.58964"
     inkscape:cy="449.24261"
     inkscape:window-width="1418"
     inkscape:window-height="1211"
     inkscape:window-x="107"
     inkscape:window-y="81"
     inkscape:window-maximized="0"
     inkscape:current-layer="layer4" /><defs
     id="defs1"><symbol
       id="sjjb-landuse.svg:hills"
       viewBox="0 0 452.86444 226.23323"><title
         id="title6">Hills</title><path
         d="m 179.9035,0.00358457 c -4.19922,-0.01729 -8.40033,0.03142 -12.59765,0.07227 -39.22077,-0.83704 -81.184911,5.73508503 -111.32422,32.74218343 -17.84714,15.20614 -33.763021,33.63045 -55.269531,43.75782 -2.650844,3.00967 2.800086,3.75932 4.90625,3 9.019234,-2.2793 15.956025,-9.35176 24.078125,-13.84375 15.98596,-10.61568 29.676487,-23.92998 42.574217,-37.94335 13.176949,-9.53662 29.869779,-12.00718 45.259769,-16.3711 24.51897,-5.3223448 49.90978,-8.7806938 74.99414,-6.6543038 17.9245,4.576343 29.12992,21.0950928 44.84375,29.9687528 15.17614,9.89259 31.52486,18.7369 45.25,30.25 1.11555,-1.92439 -0.91505,-5.53366 -1.15625,-7.84375 -3.15304,-7.06153 -11.43345,-9.86687 -17.1875,-14.53125 -15.56308,-9.47905 -31.54849,-18.77016 -44.28125,-31.81249 -7.39152,-7.1187962 -17.21364,-11.06947283 -27.5,-10.46876283 -4.19329,-0.2217 -8.39062,-0.30498 -12.58985,-0.322265 z M 333.58319,84.571948 c -18.3712,0.59518 -37.24028,3.30167 -53.875,11.21875 -11.25487,7.221012 -22.36174,14.502882 -33.40625,22.031252 -1.46855,1.05996 -6.63905,5.09345 -2.09375,3.0625 23.14953,-7.60492 43.81165,-22.258872 68.19336,-26.476562 20.60973,-5.15501 44.5532,-7.48589 63.05664,4.88281 12.34319,7.709672 22.99577,18.056482 36.3125,24.250002 14.27752,7.77103 24.71792,24.76074 41.09375,26.75 C 436.47742,127.15857 408.1182,117.24354 388.2746,97.505538 373.55921,83.671248 352.41871,84.876598 333.58319,84.571948 Z M 203.10468,151.81414 c -0.61567,-0.004 -1.23219,2e-5 -1.84961,0.0137 -31.62382,2.61225 -64.40785,9.42394 -89.71094,29.65625 -17.035031,12.8395 -31.042831,29.79358 -50.070314,39.6875 -1.92089,2.78152 2.84221,7.28577 4.9375,3.78125 24.245003,-13.1651 41.551304,-35.81632 64.843754,-50.21875 22.74862,-11.9244 48.95265,-14.49799 74.09375,-17.625 17.57282,-0.89735 36.19959,4.8049 47.5625,18.71875 15.26441,12.85776 34.81496,19.83178 48.8125,34.1875 6.33889,5.2207 11.49959,13.49618 19.4375,15.4375 -0.53075,-5.86255 -6.28126,-9.81487 -9.53125,-14.34375 -14.02641,-15.2832 -32.85089,-24.47094 -49.75,-35.9375 -9.35849,-7.95098 -17.80344,-19.73581 -31.37891,-19.94336 -9.11488,-1.44445 -18.16156,-3.36017 -27.39648,-3.41406 z"
         id="path6-4" /></symbol><symbol
       id="sjjb-poi.svg:peak"
       viewBox="0 0 509.05307 441.04025"><title
         id="title13">Peak</title><path
         d="M 0,440.64895 254.40879,0 509.05306,441.04026 Z"
         id="path14" /></symbol><symbol
       id="sjjb-landuse.svg:coniferous"
       viewBox="0 0 233.27638 398.15561"><title
         id="title2">Coniferous</title><path
         d="M 116.37446,0.00131142 A 2.1293943,2.1293943 0 0 0 114.50727,1.2317804 L 25.61274,192.99155 a 2.1293943,2.1293943 0 0 0 2.48828,2.95118 l 24.25781,-6.56446 -38.1875,59.92188 a 2.1293943,2.1293943 0 0 0 2.29492,3.21289 l 27.79883,-6.70703 -43.89844,64.65625 a 2.1293943,2.1293943 0 0 0 2.07618,3.30078 l 89.91015,-13.47461 v 95.73828 a 2.1293943,2.1293943 0 0 0 2.12891,2.12891 h 21.95703 a 2.1293943,2.1293943 0 0 0 0.11523,-0.006 2.1293943,2.1293943 0 0 0 0.006,0 2.1293943,2.1293943 0 0 0 0.14453,0.006 h 21.95704 a 2.1293943,2.1293943 0 0 0 2.1289,-2.12891 v -95.73828 l 90.04297,13.4746 a 2.1293943,2.1293943 0 0 0 2.07617,-3.30077 l -43.89453,-64.65039 27.65821,6.70116 a 2.1293943,2.1293943 0 0 0 2.32226,-3.17383 l -36.3125,-59.89259 22.45703,6.48634 a 2.1293943,2.1293943 0 0 0 2.52149,-2.94142 L 118.63618,1.2317904 a 2.1293943,2.1293943 0 0 0 -2.08008,-1.22656298 2.1293943,2.1293943 0 0 0 -0.18164,-0.0039 z"
         id="path2-6" /></symbol><symbol
       id="sjjb-landuse.svg:grass"
       viewBox="0 0 375.46152 341.32416"><title
         id="title5">Grass</title><path
         d="M 287.43291,3.6911081e-4 A 5.8277736,5.8277736 0 0 0 281.66924,5.8870931 l -0.32812,83.3984399 a 5.8277736,5.8277736 0 1 0 11.65429,0.0449 L 293.32354,5.9319931 A 5.8277736,5.8277736 0 0 0 287.43291,3.4921081e-4 Z M 242.17901,27.148813 a 5.8277736,5.8277736 0 0 0 -5.38086,8.08398 l 22.74414,56.36914 a 5.8277736,5.8277736 0 1 0 10.80859,-4.36132 l -22.74609,-56.36719 a 5.8277736,5.8277736 0 0 0 -5.42578,-3.72461 z m 94.63867,2.31445 a 5.8277736,5.8277736 0 0 0 -5.49805,3.3418 l -26.37109,54.06055 a 5.8277736,5.8277736 0 1 0 10.47461,5.10937 l 26.37109,-54.06055 a 5.8277736,5.8277736 0 0 0 -4.97656,-8.45117 z m 32.58399,20.99805 a 5.8277736,5.8277736 0 0 0 -3.98633,1.80469 l -32.30469,32.96289 a 5.8277736,5.8277736 0 1 0 8.32422,8.1582 l 32.30273,-32.96484 a 5.8277736,5.8277736 0 0 0 -4.33593,-9.96094 z m -163.57813,0.98633 a 5.8277736,5.8277736 0 0 0 -4.05859,10.00586 l 31.97461,31.97461 a 5.8277736,5.8277736 0 1 0 8.24023,-8.24024 l -31.97461,-31.97461 a 5.8277736,5.8277736 0 0 0 -4.18164,-1.76562 z M 87.43291,96.000373 a 5.8277736,5.8277736 0 0 0 -5.76367,5.886717 l -0.32812,83.39844 a 5.8277736,5.8277736 0 1 0 11.65429,0.0449 l 0.32813,-83.39844 a 5.8277736,5.8277736 0 0 0 -5.89063,-5.931637 z m -45.2539,27.148437 a 5.8277736,5.8277736 0 0 0 -5.38086,8.08398 l 22.74414,56.36914 a 5.8277736,5.8277736 0 1 0 10.80859,-4.36132 L 47.60479,126.87342 a 5.8277736,5.8277736 0 0 0 -5.42578,-3.72461 z m 94.63867,2.31445 a 5.8277736,5.8277736 0 0 0 -5.49805,3.3418 l -26.37109,54.06055 a 5.8277736,5.8277736 0 1 0 10.47461,5.10937 l 26.37109,-54.06055 a 5.8277736,5.8277736 0 0 0 -4.97656,-8.45117 z m 32.58399,20.99805 a 5.8277736,5.8277736 0 0 0 -3.98633,1.80469 l -32.30469,32.96289 a 5.8277736,5.8277736 0 1 0 8.32422,8.1582 l 32.30273,-32.96484 a 5.8277736,5.8277736 0 0 0 -4.33593,-9.96094 z M 5.823539,147.44764 a 5.8277736,5.8277736 0 0 0 -4.05859,10.00586 l 31.97461,31.97461 a 5.8277736,5.8277736 0 1 0 8.24023,-8.24024 l -31.97461,-31.97461 a 5.8277736,5.8277736 0 0 0 -4.18164,-1.76562 z m 185.609371,98.55273 a 5.8277736,5.8277736 0 0 0 -5.76367,5.88672 l -0.32812,83.39844 a 5.8277736,5.8277736 0 1 0 11.65429,0.0449 l 0.32813,-83.39844 a 5.8277736,5.8277736 0 0 0 -5.89063,-5.93164 z m -45.2539,27.14844 a 5.8277736,5.8277736 0 0 0 -5.38086,8.08398 l 22.74414,56.36914 a 5.8277736,5.8277736 0 1 0 10.80859,-4.36132 l -22.74609,-56.36719 a 5.8277736,5.8277736 0 0 0 -5.42578,-3.72461 z m 94.63867,2.31445 a 5.8277736,5.8277736 0 0 0 -5.49805,3.3418 l -26.37109,54.06055 a 5.8277736,5.8277736 0 1 0 10.47461,5.10937 l 26.37109,-54.06055 a 5.8277736,5.8277736 0 0 0 -4.97656,-8.45117 z m 32.58399,20.99805 a 5.8277736,5.8277736 0 0 0 -3.98633,1.80469 l -32.30469,32.96289 a 5.8277736,5.8277736 0 1 0 8.32422,8.1582 l 32.30273,-32.96484 a 5.8277736,5.8277736 0 0 0 -4.33593,-9.96094 z m -163.57813,0.98633 a 5.8277736,5.8277736 0 0 0 -4.05859,10.00586 l 31.97461,31.97461 a 5.8277736,5.8277736 0 1 0 8.24023,-8.24024 l -31.97461,-31.97461 a 5.8277736,5.8277736 0 0 0 -4.18164,-1.76562 z"
         id="path5" /></symbol></defs><g
     inkscape:groupmode="layer"
     id="layer4"
     inkscape:label="Borders"
     style="display:inline"><path
       id="acaadia"
       style="display:inline;opacity:1;fill:#334de5;fill-opacity:0.536269;stroke:#000000;stroke-width:0.79375;stroke-dasharray:none"
       inkscape:label="mainland"
       d="m 861.99751,393.20752 c 0,0 2.51968,5.03927 1.08003,6.11901 -1.43967,1.07976 -2.33965,2.33945 -3.41942,4.49895 -1.07973,2.1595 3e-4,2.1592 -2.69906,2.69906 -2.69935,0.53988 -2.8793,-0.71983 -3.05925,0.71985 -0.17997,1.43965 1.79921,1.25996 0.5395,3.41943 -1.25971,2.15951 -1.25979,2.87892 -2.87941,3.59875 -1.61962,0.71982 -1.97913,1.62 -3.59875,0.18035 -1.61962,-1.43968 -2.15958,-2.69931 -3.59926,-1.61954 -1.43965,1.07973 -1.25967,3.59904 -3.05924,0.89968 -1.79959,-2.69938 0.5399,-3.77947 -2.3394,-3.23959 -2.87933,0.53986 -1.79994,0.18002 -3.23959,2.15956 -1.43968,1.97953 9e-5,2.5196 -2.33939,2.69957 -2.33944,0.17994 -2.33956,-2.33963 -3.59927,-1.25987 -1.25971,1.07974 -2.15907,2.51937 -2.87889,3.05925 -0.71985,0.53989 -0.53996,1.25959 -2.87941,0.89968 -2.33947,-0.35991 -1.79981,-0.89958 -3.41943,-1.07952 -1.61962,-0.17997 -1.07944,-0.18011 -2.69906,-0.54002 -1.61962,-0.35991 -1.44004,-0.89968 -3.2396,-0.89968 -1.79959,0 -2.15931,-2.15964 -2.51922,0.17983 -0.35992,2.33945 2.15931,1.43963 -1.97973,3.05925 -4.13903,1.61963 -1.79924,0.9001 -5.7583,1.79989 -3.95907,0.89977 -3.95926,0.89968 -6.47868,0.89968 -2.51938,0 -2.33944,-0.17997 -3.77909,-0.71985 -1.43968,-0.53986 -0.71978,-1.61951 -3.05925,-0.89969 -2.33945,0.71985 -2.87941,-0.36016 -2.87941,1.07952 0,1.43965 1.4396,1.25993 1.61954,2.69958 0.17997,1.43965 1.08001,2.5195 -0.35967,2.87941 -1.43965,0.35992 -0.90004,0.35981 -4.13928,0.89969 -3.23924,0.53986 -4.3186,-0.18005 -4.3186,0.89969 0,1.07976 5.57847,4.85913 5.57847,4.85913 0,0 -7.73841,6.2981 -7.91838,7.37784 -0.17994,1.07973 5.93866,1.79982 6.65851,2.69958 0.71983,0.8998 0.72002,0.5397 1.97972,2.51923 1.25971,1.97953 2.33967,-0.35958 2.69958,2.51974 0.35992,2.87933 -0.54026,2.87895 -0.18035,4.3186 0.35994,1.43968 2.3397,1.61967 3.41943,2.15956 1.07974,0.53985 1.79964,3.3e-4 2.15956,1.79989 0.35991,1.79959 -0.18005,2.87931 0.89968,3.7791 1.07977,0.8998 2.1593,-0.89988 1.79938,1.61953 -0.35991,2.51942 -1.61941,3.59916 -1.79938,4.49895 -0.17994,0.8998 1.79951,-0.89998 1.61954,2.51923 -0.17994,3.41918 -0.5396,1.61979 -0.35966,5.03897 0.17997,3.41921 0.35966,4.49914 0.35966,6.47867 0,1.97954 0.36019,2.69923 0.36019,3.95894 0,1.25971 -0.35992,0.89984 0,2.15955 0.35994,1.25971 1.79953,1.07974 3.05924,0 1.2597,-1.07976 0.35987,-0.35983 2.3394,-1.61954 1.97953,-1.25971 2.33931,-2.69957 3.95893,-1.97972 1.61962,0.71982 1.97964,0.89969 3.59926,0.89969 1.61962,0 1.25966,-1.9e-4 3.05925,-1.25987 1.79956,-1.25971 2.33927,-4.13858 3.23907,-2.15905 0.89977,1.97954 0.54002,1.79914 0.54002,2.8789 0,1.07974 0.1797,1.61994 -0.36018,2.51974 -0.53985,0.89977 -2.8789,3.05925 -2.8789,3.05925 0,0 -1.43965,1.43946 0,1.79937 1.43968,0.35994 1.25954,0.36018 3.23908,0.36018 1.97953,0 3.41895,-0.72012 4.13877,-1.08003 0.71983,-0.35992 1.62005,-0.53951 1.62005,-0.53951 0,0 0.89983,-0.36023 1.43971,1.25936 0.53985,1.61962 0.53937,1.97954 0.71934,3.7791 0.17995,1.79959 -1.43965,1.97975 0.71985,2.69957 2.1595,0.71985 3.23962,0.71986 3.95945,0.71986 h 1.07952 l 0.36018,7.19801 1.61954,5.75882 c 0,0 2.33917,0.36018 3.41891,0.36018 1.07974,0 2.87931,-1.25977 3.7791,-2.15956 0.89977,-0.8998 3.05925,-2.15955 3.05925,-2.15955 0,0 0.71985,-0.35979 1.4397,0.54001 0.71982,0.89979 -1.07966,2.8789 2.87941,2.8789 3.95909,0 3.59931,-0.17956 5.75882,0.9002 2.1595,1.07974 3.23938,2.15904 5.03897,2.15904 1.79956,0 1.25936,0.18033 1.97921,-1.25935 0.71983,-1.43965 0.54008,-2.3398 2.69958,-2.51974 2.1595,-0.17997 2.69909,0.36015 4.13876,-0.35967 1.43966,-0.71985 0.35986,-2.15978 2.33939,-1.08004 1.97953,1.07977 3.41932,2.15995 4.31912,1.62006 0.89979,-0.53985 0.89969,-0.53991 0.89969,-1.43971 v -1.79989 c 0,0 -1.25957,-2.33939 -0.17984,-2.33939 1.07977,0 1.25954,0.54005 3.23908,1.25987 1.97953,0.71983 4.31904,2.33937 5.93866,1.61954 1.61962,-0.71982 1.2599,0.35973 1.97972,-1.97972 0.71983,-2.33944 0.71985,-2.87909 0.71985,-4.85862 0,-1.97953 -1.61972,-2.87945 0.17984,-3.59927 0.61901,-0.2476 0.72762,-0.2606 0.74207,-0.25218 l 5.2e-4,5.2e-4 5.2e-4,5.2e-4 v 5.1e-4 l 5.1e-4,5.2e-4 v 5.2e-4 5.1e-4 5.2e-4 c 0.0252,-0.0242 0.23625,-0.1897 1.65778,-1.01803 -0.83037,-0.80522 -1.843,-2.23121 -2.58124,-3.77186 -1.03476,-2.15951 -0.5848,-2.78967 -1.57458,-4.0044 -0.98975,-1.2147 -1.75469,-2.11459 -3.59926,-2.87942 -1.84457,-0.76481 -6.11871,-4.7689 -6.52363,-5.2188 -0.40489,-0.44989 -2.15917,-1.03442 -1.97921,-3.50883 0.17997,-2.47441 -0.13509,-2.24935 0.94465,-3.91397 1.07974,-1.6646 -0.1352,-1.48472 1.84433,-2.92437 1.97953,-1.43965 4.0041,-3.05941 5.2188,-4.31912 1.21473,-1.25971 1.25993,0.22507 2.69958,-2.42931 1.43968,-2.65438 1.25967,-2.38478 0.80977,-4.0044 -0.44987,-1.61962 0.36008,-2.2495 -2.47427,-2.20452 -2.83432,0.045 -4.76885,0.09 -6.07353,-1.48466 -1.30472,-1.57461 -2.20455,-1.25973 -2.1146,-2.24948 0.09,-0.98978 2.33935,-5.35355 3.14916,-7.01817 0.80981,-1.6646 0.6298,-2.60952 0.80977,-4.31912 0.17994,-1.70961 0.58498,-3.01424 0.58498,-5.35368 0,-2.33945 -0.58497,-4.49883 0.17983,-8.41292 0.76483,-3.91408 0.0898,-10.21277 0.26975,-12.55221 0.17997,-2.33945 -0.22456,-3.64374 0.22531,-5.84822 0.4499,-2.20448 1.12429,-5.66902 0.62942,-7.01869 -0.49488,-1.34969 1.48467,-0.67491 -1.52962,-2.92437 -3.01429,-2.24949 -4.04885,-3.55379 -4.04885,-3.55379 0,0 -0.41527,-0.38048 -0.79013,-1.14722 -1.79455,1.84692 2.77419,2.77921 -3.57395,1.19218 -7.19831,-1.79959 -8.27804,-2.33991 -8.27804,-2.33991 z m 26.11572,103.22936 c -4.5e-4,4.8e-4 -8.5e-4,7.6e-4 -0.001,0.001 v 5.2e-4 c 2.4e-4,-2.1e-4 0.001,-7.3e-4 0.002,-10e-4 v -5.1e-4 z m -0.001,0.002 h -5.1e-4 v 5.1e-4 h 5.1e-4 z" /></g></svg>
